<svg width="90" height="30" viewBox="0 0 90 30" fill="none" xmlns="http://www.w3.org/2000/svg">
<g clip-path="url(#clip0_0_182)">
<rect width="90" height="30" rx="4" fill="#0E7159"/>
<path d="M32.088 8.968V20.056H33.672V8.968H32.088ZM28.8 9.832H27.216V11.44C27.216 13.6 26.304 15.712 24.372 16.552L25.32 17.86C26.676 17.236 27.54 16.072 28.032 14.572C28.524 15.928 29.352 17.02 30.648 17.596L31.548 16.312C29.676 15.508 28.8 13.492 28.8 11.44V9.832ZM45.2701 11.644H43.8061V8.98H42.2221V15.64H43.8061V12.952H45.2701V11.644ZM41.7061 14.032C39.9781 13.456 39.2101 12.184 39.1741 10.888H41.3341V9.628H35.3581V10.888H37.5541C37.5181 12.268 36.7381 13.648 34.9381 14.224L35.7661 15.46C37.0621 15.04 37.9021 14.188 38.3941 13.12C38.8741 14.092 39.7021 14.872 40.9021 15.256L41.7061 14.032ZM36.4261 17.392H42.2221V20.044H43.8061V16.132H36.4261V17.392ZM55.9562 13.3H54.3722V8.98H52.7882V20.032H54.3722V14.608H55.9562V13.3ZM49.6682 9.172H48.0842V10.612H45.6362V11.872H52.0682V10.612H49.6682V9.172ZM48.8882 12.496C47.2802 12.496 46.0802 13.588 46.0802 15.124C46.0802 16.696 47.2802 17.776 48.8882 17.776C50.4842 17.776 51.6722 16.696 51.6722 15.124C51.6722 13.588 50.4842 12.496 48.8882 12.496ZM48.8882 16.48C48.1202 16.48 47.5922 16 47.5922 15.136C47.5922 14.272 48.1202 13.78 48.8882 13.78C49.6562 13.78 50.1722 14.296 50.1722 15.124C50.1722 15.988 49.6562 16.48 48.8882 16.48ZM63.8944 8.968V20.02H65.4904V8.968H63.8944ZM56.8983 10.12V11.38H60.5823C60.3543 13.828 59.1303 15.568 56.3103 16.912L57.1383 18.16C61.0623 16.276 62.2023 13.492 62.2023 10.12H56.8983Z" fill="white"/>
</g>
<defs>
<clipPath id="clip0_0_182">
<rect width="90" height="30" fill="white"/>
</clipPath>
</defs>
</svg>
